# xmcd
#
# Track frame offsets:
#	150
#	12395
#	26690
#	41002
#	56282
#	70857
#	84100
#	95037
#	106992
#	119125
#	127817
#	138265
#	148060
#	161377
#	172552
#
# Disc length: 2412 seconds
#
# Revision: 1
# Processed by: cddbd v1.4PL0 Copyright (c) Steve Scherf et al.
# Submitted via: audiograbber 1.81.03
#
DISCID=be096a0f
DTITLE=Various Artist - Country Stars Vol 1 Disk C
DYEAR=1900
DGENRE=Country
TTITLE0=Del Reeves - Girl On The Billboard
TTITLE1=Freddy Fender - Wasted Days And Wasted Nights
TTITLE2=Kitty Wells - It Wasn't God Who Made Honky Tonk Angels
TTITLE3=Ernest Tubb - Soldiers Last Letter
TTITLE4=Merle Haggard - Train Whistle Blues
TTITLE5=Ronnie Dove - One Kiss For Old Time's Sake 
TTITLE6=Don Williams - Always Something There To Remind Me
TTITLE7=Kenny Rogers - Elvira
TTITLE8=Hank Williams - Wild side Of Life
TTITLE9=Buck Owens - Why Don't Mommy Stay With Daddy And Me
TTITLE10=Glen Campbell - Gentle On My Mind
TTITLE11=Johnny Cash - Ballad Of A Teenage Queen
TTITLE12=Mac Davis - Burning Thing
TTITLE13=Roy Drusky - Long, Long Texas Road
TTITLE14=Waylon Jennings - Abilene
EXTD=
EXTT0=
EXTT1=
EXTT2=
EXTT3=
EXTT4=
EXTT5=
EXTT6=
EXTT7=
EXTT8=
EXTT9=
EXTT10=
EXTT11=
EXTT12=
EXTT13=
EXTT14=
PLAYORDER=
